<mxfile host="app.diagrams.net" agent="Mozilla/5.0 (Windows NT 10.0; Win64; x64) AppleWebKit/537.36 (KHTML, like Gecko) Chrome/127.0.0.0 Safari/537.36" version="24.7.6">
  <diagram name="Página-1" id="rlTbjxcA8UzOGPKegKic">
    <mxGraphModel dx="419" dy="223" grid="0" gridSize="10" guides="1" tooltips="1" connect="1" arrows="1" fold="1" page="1" pageScale="1" pageWidth="827" pageHeight="1169" math="0" shadow="0">
      <root>
        <mxCell id="0" />
        <mxCell id="1" parent="0" />
        <mxCell id="0MchEkT6NV34sEj7a_se-1" value="" style="whiteSpace=wrap;html=1;aspect=fixed;fillColor=#dae8fc;strokeColor=#6c8ebf;gradientColor=#7ea6e0;" vertex="1" parent="1">
          <mxGeometry x="180" y="40" width="440" height="440" as="geometry" />
        </mxCell>
        <mxCell id="0MchEkT6NV34sEj7a_se-2" value="SISTEMA DE VENTAS" style="shape=document;whiteSpace=wrap;html=1;boundedLbl=1;fontStyle=1;labelBackgroundColor=none;fillColor=#dae8fc;strokeColor=#6c8ebf;gradientColor=#7ea6e0;" vertex="1" parent="1">
          <mxGeometry x="180" y="40" width="140" height="66" as="geometry" />
        </mxCell>
        <mxCell id="0MchEkT6NV34sEj7a_se-11" style="edgeStyle=orthogonalEdgeStyle;rounded=0;orthogonalLoop=1;jettySize=auto;html=1;" edge="1" parent="1" source="0MchEkT6NV34sEj7a_se-3" target="0MchEkT6NV34sEj7a_se-10">
          <mxGeometry relative="1" as="geometry" />
        </mxCell>
        <mxCell id="0MchEkT6NV34sEj7a_se-3" value="Administrador Plataforma" style="shape=umlActor;verticalLabelPosition=bottom;verticalAlign=top;html=1;outlineConnect=0;" vertex="1" parent="1">
          <mxGeometry x="55" y="90" width="51" height="84" as="geometry" />
        </mxCell>
        <mxCell id="0MchEkT6NV34sEj7a_se-4" value="Analista TI" style="shape=umlActor;verticalLabelPosition=bottom;verticalAlign=top;html=1;outlineConnect=0;" vertex="1" parent="1">
          <mxGeometry x="51" y="220" width="51" height="84" as="geometry" />
        </mxCell>
        <mxCell id="0MchEkT6NV34sEj7a_se-10" value="Registrar Usuario" style="ellipse;shape=doubleEllipse;whiteSpace=wrap;html=1;aspect=fixed;fillColor=#fff2cc;strokeColor=#d6b656;" vertex="1" parent="1">
          <mxGeometry x="225" y="112" width="95" height="95" as="geometry" />
        </mxCell>
        <mxCell id="0MchEkT6NV34sEj7a_se-12" style="edgeStyle=orthogonalEdgeStyle;rounded=0;orthogonalLoop=1;jettySize=auto;html=1;entryX=0.042;entryY=0.684;entryDx=0;entryDy=0;entryPerimeter=0;" edge="1" parent="1" source="0MchEkT6NV34sEj7a_se-4" target="0MchEkT6NV34sEj7a_se-10">
          <mxGeometry relative="1" as="geometry">
            <Array as="points">
              <mxPoint x="192" y="262" />
              <mxPoint x="192" y="177" />
            </Array>
          </mxGeometry>
        </mxCell>
        <mxCell id="0MchEkT6NV34sEj7a_se-13" value="Iniciar Sesión" style="ellipse;shape=doubleEllipse;whiteSpace=wrap;html=1;aspect=fixed;fillColor=#ffff88;strokeColor=#36393d;" vertex="1" parent="1">
          <mxGeometry x="223" y="334" width="89.5" height="89.5" as="geometry" />
        </mxCell>
        <mxCell id="0MchEkT6NV34sEj7a_se-17" value="Enviar Correo Cuenta" style="ellipse;shape=doubleEllipse;whiteSpace=wrap;html=1;aspect=fixed;fillColor=#fff2cc;strokeColor=#d6b656;" vertex="1" parent="1">
          <mxGeometry x="461" y="112" width="95" height="95" as="geometry" />
        </mxCell>
        <mxCell id="0MchEkT6NV34sEj7a_se-18" value="zz" style="endArrow=classic;html=1;rounded=0;exitX=1;exitY=0.5;exitDx=0;exitDy=0;" edge="1" parent="1" source="0MchEkT6NV34sEj7a_se-10" target="0MchEkT6NV34sEj7a_se-17">
          <mxGeometry relative="1" as="geometry">
            <mxPoint x="362" y="243" as="sourcePoint" />
            <mxPoint x="462" y="243" as="targetPoint" />
          </mxGeometry>
        </mxCell>
        <mxCell id="0MchEkT6NV34sEj7a_se-19" value="&amp;lt;&amp;lt;Include&amp;gt;&amp;gt;" style="edgeLabel;resizable=0;html=1;;align=center;verticalAlign=middle;fontSize=13;fontStyle=1" connectable="0" vertex="1" parent="0MchEkT6NV34sEj7a_se-18">
          <mxGeometry relative="1" as="geometry" />
        </mxCell>
        <mxCell id="0MchEkT6NV34sEj7a_se-21" value="Asignar Contraseña" style="ellipse;shape=doubleEllipse;whiteSpace=wrap;html=1;aspect=fixed;fillColor=#ffff88;strokeColor=#36393d;" vertex="1" parent="1">
          <mxGeometry x="364" y="249" width="89.5" height="89.5" as="geometry" />
        </mxCell>
        <mxCell id="0MchEkT6NV34sEj7a_se-22" value="" style="endArrow=classic;html=1;rounded=0;exitX=1;exitY=0;exitDx=0;exitDy=0;" edge="1" parent="1" source="0MchEkT6NV34sEj7a_se-21" target="0MchEkT6NV34sEj7a_se-17">
          <mxGeometry width="50" height="50" relative="1" as="geometry">
            <mxPoint x="463" y="282" as="sourcePoint" />
            <mxPoint x="384" y="212" as="targetPoint" />
          </mxGeometry>
        </mxCell>
        <mxCell id="0MchEkT6NV34sEj7a_se-23" value="&amp;lt;&amp;lt;include&amp;gt;&amp;gt;" style="edgeLabel;html=1;align=center;verticalAlign=middle;resizable=0;points=[];fontSize=13;fontStyle=1" vertex="1" connectable="0" parent="0MchEkT6NV34sEj7a_se-22">
          <mxGeometry x="0.0059" y="-1" relative="1" as="geometry">
            <mxPoint as="offset" />
          </mxGeometry>
        </mxCell>
        <mxCell id="0MchEkT6NV34sEj7a_se-24" style="edgeStyle=orthogonalEdgeStyle;rounded=0;orthogonalLoop=1;jettySize=auto;html=1;entryX=0.022;entryY=0.682;entryDx=0;entryDy=0;entryPerimeter=0;" edge="1" parent="1" source="0MchEkT6NV34sEj7a_se-4" target="0MchEkT6NV34sEj7a_se-13">
          <mxGeometry relative="1" as="geometry">
            <Array as="points">
              <mxPoint x="192" y="262" />
              <mxPoint x="192" y="376" />
            </Array>
          </mxGeometry>
        </mxCell>
        <mxCell id="0MchEkT6NV34sEj7a_se-25" value="" style="endArrow=none;dashed=1;html=1;dashPattern=1 3;strokeWidth=2;rounded=0;entryX=0.101;entryY=0.715;entryDx=0;entryDy=0;entryPerimeter=0;" edge="1" parent="1" source="0MchEkT6NV34sEj7a_se-13" target="0MchEkT6NV34sEj7a_se-21">
          <mxGeometry width="50" height="50" relative="1" as="geometry">
            <mxPoint x="339" y="363" as="sourcePoint" />
            <mxPoint x="389" y="313" as="targetPoint" />
          </mxGeometry>
        </mxCell>
        <mxCell id="0MchEkT6NV34sEj7a_se-28" value="&amp;lt;&amp;lt;Include&amp;gt;&amp;gt;" style="edgeLabel;html=1;align=center;verticalAlign=middle;resizable=0;points=[];fontSize=13;fontStyle=1" vertex="1" connectable="0" parent="0MchEkT6NV34sEj7a_se-25">
          <mxGeometry x="0.0178" relative="1" as="geometry">
            <mxPoint as="offset" />
          </mxGeometry>
        </mxCell>
      </root>
    </mxGraphModel>
  </diagram>
</mxfile>
